<?xml version="1.0" encoding="UTF-8" standalone="no"?>
<!-- Created with Inkscape (http://www.inkscape.org/) -->

<svg
   xmlns:dc="http://purl.org/dc/elements/1.1/"
   xmlns:cc="http://creativecommons.org/ns#"
   xmlns:rdf="http://www.w3.org/1999/02/22-rdf-syntax-ns#"
   xmlns:svg="http://www.w3.org/2000/svg"
   xmlns="http://www.w3.org/2000/svg"
   xmlns:sodipodi="http://sodipodi.sourceforge.net/DTD/sodipodi-0.dtd"
   xmlns:inkscape="http://www.inkscape.org/namespaces/inkscape"
   width="68.65049mm"
   height="13.279013mm"
   viewBox="0 0 243.24977 47.05162"
   id="svg88238"
   version="1.1"
   inkscape:version="0.91 r13725"
   sodipodi:docname="university_text_logo.svg">
  <defs
     id="defs88240" />
  <sodipodi:namedview
     id="base"
     pagecolor="#ffffff"
     bordercolor="#666666"
     borderopacity="1.0"
     inkscape:pageopacity="0.0"
     inkscape:pageshadow="2"
     inkscape:zoom="0.35"
     inkscape:cx="-777.66084"
     inkscape:cy="-113.61705"
     inkscape:document-units="px"
     inkscape:current-layer="layer1"
     showgrid="false"
     fit-margin-top="0"
     fit-margin-left="0"
     fit-margin-right="0"
     fit-margin-bottom="0"
     inkscape:window-width="1600"
     inkscape:window-height="819"
     inkscape:window-x="1366"
     inkscape:window-y="24"
     inkscape:window-maximized="1" />
  <metadata
     id="metadata88243">
    <rdf:RDF>
      <cc:Work
         rdf:about="">
        <dc:format>image/svg+xml</dc:format>
        <dc:type
           rdf:resource="http://purl.org/dc/dcmitype/StillImage" />
        <dc:title></dc:title>
      </cc:Work>
    </rdf:RDF>
  </metadata>
  <g
     inkscape:label="Layer 1"
     inkscape:groupmode="layer"
     id="layer1"
     transform="translate(-324.08941,-371.69354)">
    <g
       transform="translate(108.28229,-240.11926)"
       id="Layer1239">
      <path
         d="m 313.0489,621.9284 c 0,0 7.9947,-0.309 12.2489,-1.1538 0.2456,-0.0487 0.4977,-0.3248 0.7216,-0.3869 0.6647,-0.1843 1.5996,-0.4699 1.854,-0.5066 0.0157,0.013 0.2197,0.0153 0.328,0.1361 0.1395,0.1556 0.315,0.4504 0.7243,0.6008 0.4315,0.1584 0.8777,0.2693 1.091,0.658 0.2053,0.3739 0.3914,1.2905 0.1041,1.9889 -0.252,0.6125 -0.9085,1.0805 -1.7004,2.0031 0,0.0224 -1.0622,1.1159 -2.4875,2.6555 -1.7234,1.8614 -3.1748,4.5218 -4.394,6.9586 -0.3671,0.7338 -0.7027,1.5684 -1.0681,2.2234 -0.5342,0.9574 -1.1254,1.7211 -1.3831,2.2531 0,0 3.8658,-1.178 6.0617,-4.1059 2e-4,0.0165 0.4794,0.5983 0.9032,1.2666 0.3298,0.5199 0.4675,1.2192 0.7255,1.8652 0.1091,0.2732 0.5841,0.3452 0.63,0.6343 0.115,0.7252 -0.3244,1.4114 -0.8438,2.121 -0.2194,0.2994 -0.6669,0.49 -1.0292,0.7788 -0.3735,0.2978 -0.9749,0.6195 -1.5065,0.9169 5e-4,9e-4 -1.5108,0.7628 -3.8801,1.8326 -0.7895,0.3566 -1.7256,0.4937 -2.6645,0.9866 -0.7793,0.4092 -1.6012,1.1962 -2.4477,1.6692 -0.5096,0.2847 -1.1406,0.4842 -1.7188,0.6659 -1.5546,0.489 -3.1936,1.7358 -4.6948,2.9661 0,0 -1.0971,0.674 -2.3581,0.72 -0.4141,0.0151 -1.3304,-1.0346 -1.7249,-1.4291 0,0 -2.4735,-1.2254 -3.9683,-1.9482 -0.3447,-0.1666 -0.5837,-0.8482 -0.7896,-0.8654 0,0 0.4432,-0.6681 2.0333,-1.0037 2.0444,-0.4316 4.5348,-0.736 5.8285,-1.3771 -0.003,0 0.2343,-0.0853 0.2991,-0.1029 0.4673,-0.1278 2.3851,-0.5011 5.0222,-3.8404 0.8436,-1.0681 1.5314,-2.6393 2.4918,-4.3228 0.4509,-0.7899 1.172,-1.6709 1.6181,-2.6316 0,0 1.5615,-3.3106 2.939,-5.7315 0.6035,-1.0606 1.1263,-1.8256 1.5443,-2.1602 0,0 0.0952,-0.3969 -0.6042,-0.1229 -1.6134,0.6321 -4.8325,1.6976 -6.6469,0.8892 -1.0896,-0.2298 -2.747,-0.9183 -3.3846,-1.9706 -0.1469,-0.2426 -0.5198,-0.7935 -0.5107,-1.064 0.0111,-0.333 0.3483,-0.4195 0.6815,-0.8082 l 1.9557,-1.2581 z"
         style="fill:#1b1918;fill-rule:evenodd"
         id="path86106"
         inkscape:connector-curvature="0" />
      <path
         d="m 381.7748,644.5596 c -0.0536,-0.0312 -1.4275,-0.449 -2.2314,-1.3854 -1.0252,-1.1941 -1.8353,-3.0061 0.714,-3.5294 0,0 0.9533,-0.006 2.1947,-0.3061 0.8497,-0.2052 1.7049,-0.6123 2.6698,-0.7777 0.5474,-0.0937 0.7197,-0.315 1.2069,-0.3555 0.7323,-0.061 1.9798,-0.5086 2.3546,-0.7127 0,0 8.942,-1.2569 9.9885,-2.0708 0,0 2.4844,-8.9623 0.7402,-18.4971 0,0 -0.013,-0.0773 0.0775,-0.1772 0.2315,-0.2558 0.9713,-0.9919 1.2064,-1.0111 0.1785,0.0187 2.5298,1.3072 4.2654,4.0637 0.2946,0.4679 0.6103,1.3281 0.6503,1.6201 0.003,0.0384 0.0148,0.1196 -0.0143,0.2626 -0.309,1.5206 -2.276,8.5542 -2.3113,12.4369 -0.0239,-0.1898 3.1216,-0.6228 6.162,-3.1257 0.041,-0.0338 0.1644,-0.006 0.1745,-0.0511 0.0838,0.0921 0.6906,0.2106 1.3056,0.3765 0.5263,0.142 1.1563,0.3331 1.4567,0.4187 0.003,0.0603 -0.0691,0.0559 -0.069,0.1104 0.003,0.6428 -0.2327,0.9753 -0.2079,1.7136 0.002,0.0529 -0.0359,0.0785 -0.0311,0.1373 -0.6648,0.7234 -1.9712,1.4084 -4.7723,2.3367 -2.1451,0.9882 -3.5992,1.4383 -4.5998,1.5467 0,0 -3.1904,7.8897 -5.1048,9.9344 5e-4,0.0162 -0.7355,0.8777 -1.4108,1.2799 -1.6082,0.9582 -4.2811,1.9192 -9.719,2.1362 -1.3653,-0.0717 -2.306,-0.7112 -0.9482,-1.0989 1.9056,-0.4243 2.4728,-0.9504 4.2454,-1.9377 1.3339,-0.7431 2.5774,-0.6611 3.9114,-2.2933 1.3562,-1.6597 2.8987,-4.0421 4.026,-6.2765 0,0 -1.3945,0.3548 -3.3776,1.0283 -0.901,0.3059 -1.9248,0.9061 -2.9932,1.2517 -1.5535,0.5028 -3.1708,0.8661 -4.6187,1.3602 -1.6406,0.56 -3.055,1.1371 -3.7237,1.6235 l -0.8761,0.1674 -0.3407,-0.1986 z m 25.0759,2.1817 c 0,0 3.5443,0.1906 7.0688,4.7718 0.1433,0.2702 0.0467,0.6457 0.0688,0.9331 0.0367,0.4791 0.0937,0.8691 -0.131,1.257 -0.1883,0.3251 -0.5163,0.4619 -0.7555,0.7572 -0.4178,0.5156 -0.5549,1.0969 -1.1906,1.3137 -0.3911,0.1333 -0.8073,-0.0616 -1.2251,-0.0782 -0.4254,-0.0166 -0.8538,8e-4 -1.2129,-0.0551 -0.037,-0.006 -0.0553,-0.0494 -0.0912,-0.0559 -0.0545,-0.2144 -1.4106,-4.4969 -2.6603,-5.7441 -0.3057,-1.4596 -0.1515,-2.2568 0.129,-3.0995 z"
         style="fill:#1b1918;fill-rule:evenodd"
         id="path86108"
         inkscape:connector-curvature="0" />
      <path
         d="m 360.7209,648.3217 c 0,0 -0.3886,-0.8629 -0.008,-1.5433 0.2408,-0.4301 1.0845,-0.2614 1.7469,-0.3721 0.6835,-0.1143 0.995,-0.3733 2.2134,0.2438 0.2467,0.125 0.4806,0.6735 0.8442,0.8436 -0.0481,-0.0598 1.0581,1.1007 0.6304,2.4404 -0.0698,0.2188 -0.1332,0.634 -0.2866,0.7892 -0.2942,0.298 -0.5523,0.922 -1.1455,1.1445 -0.2481,0.0246 -0.5413,0.1328 -0.8118,0.1125 -0.3478,-0.0261 -0.6744,-0.2021 -0.9863,-0.3741 -0.4315,-0.238 -0.6947,-0.7896 -0.874,-1.283 -0.2602,-1.0256 -0.7077,-1.7588 -1.3229,-2.0015 z m -5.8898,-30.453 c 0,0 -1.5028,0.5896 -0.8372,1.7876 0,0 0.3684,0.1262 0.3952,0.4275 0.0629,0.7066 0.009,2.0652 -0.2449,3.2442 -0.071,0.3301 -0.0634,1.0085 -0.1725,1.2924 10e-5,0.1571 -1.9345,-0.4229 -2.6711,-0.1465 -0.2727,0.1023 -0.4722,0.0801 -0.4141,0.6332 0,0 0.2742,0.8527 0.3633,1.5224 0.1315,0.9871 0.175,1.8025 2.117,1.2228 0,0 0.9407,-0.1644 1.4773,0.0215 0.2252,0.078 0.365,0.1074 0.5024,0.2826 0.2289,0.2921 0.3319,0.8441 0.2591,1.4264 0,0 -0.0197,0.1849 -0.3414,0.3549 -0.2502,0.1322 -0.7699,0.1875 -1.1349,0.4451 -1.4549,1.0274 -3.7778,2.3059 -5.5158,2.6544 -0.6266,0.1256 -1.0657,0.5898 -1.37,0.5391 0,0 -0.8006,0.6897 -3.3298,0.2904 0,0 -0.9149,0.3514 -1.3082,0.8316 -0.0964,0.1177 -0.115,0.4406 -0.0533,0.564 0.4112,0.8238 1.1553,2.0162 3.9402,2.5731 0,0 2.8209,0.2186 4.5266,-2.1416 0,0 1.1323,-1.1955 1.6018,-0.6365 0.1476,0.1757 0.1095,0.599 0.0804,1.1813 0,0 0.5437,1.0602 1.6312,1.0708 0.6969,0.007 1.9558,-0.585 2.7133,-1.7363 0,0 0.6008,-1.2149 1.6003,-1.8354 0.2319,-0.1439 0.3866,-0.003 0.711,-0.0283 0,0 0.0613,0.3754 -0.0991,0.7417 -0.2715,0.6198 -0.9873,1.5051 -2.6963,2.5862 -0.0493,-0.033 -3.3416,2.2185 -3.82,3.7845 -0.08,0.2614 -0.058,0.5016 0.1537,0.6608 0.289,0.2174 1.4292,0.3312 1.7648,0.4435 0,0 -0.7658,0.7977 -0.6155,1.1002 0.1388,0.2794 0.5885,0.1895 0.5412,0.4149 -0.0473,0.2251 -0.5115,0.5094 -1.0376,0.7485 0,0 -0.3274,-0.122 -0.6267,0.1485 -0.9054,0.819 -2.1386,2.7241 0.4453,2.9608 0,0 1.1974,0.0117 1.936,-0.6773 0.0367,-4e-4 1.5329,-0.1249 -1.0247,2.1627 -0.3831,0.0448 -0.8756,-0.0645 -1.6312,0.3666 -0.2928,0.167 -0.6054,0.6356 -0.9754,0.8392 -1.0368,0.5712 -2.0502,1.3866 -2.9908,2.306 -0.7034,0.6879 -1.2511,1.4978 -1.8277,2.0897 -0.9923,1.0185 -1.4142,1.9697 -0.7971,2.8302 0.5758,0.6583 0.9513,1.3107 1.4136,1.5188 0.5083,0.229 0.9842,0.1294 1.3396,-0.1047 0.355,-0.2341 0.8805,-0.6764 1.1022,-1.1804 0.442,-1.121 0.8337,-1.9076 1.3232,-2.7168 0.0904,-0.1495 0.1333,-0.4613 0.2237,-0.5952 1.1452,-1.6959 2.2568,-2.4179 2.7707,-2.6665 0.4045,0.5341 0.7124,0.8948 1.2431,1.3674 0.2964,0.2642 0.514,0.6119 0.834,0.8198 0.4991,0.3247 0.8663,0.6367 1.3527,0.6669 0.5868,0.0364 1.2472,-0.2445 1.5393,-0.8783 0.2943,-0.6391 0.2367,-1.9197 0.1466,-3.4493 0.1587,-0.5397 0.0435,-1.2779 -0.5255,-1.7038 0,0 -0.1102,-1.7375 -0.1256,-2.9268 0.1137,-0.1482 0.4351,-0.1164 0.6009,-0.2341 0.365,-0.2766 1.0155,-0.7878 1.2478,-0.9393 0,0 0.608,-0.9024 0.7747,-1.5018 0.1339,-0.4817 -0.1973,-0.3804 -0.3145,-0.8096 l -0.1625,-0.1269 -0.5768,-0.1257 -0.1171,-0.2969 0.1669,-0.2611 0.6207,-0.3155 c 0.2276,-0.3525 0.1164,-0.7118 -0.0536,-1.0508 -0.0241,-0.0484 -0.0951,-0.0362 -0.1188,-0.0866 l -0.5189,-0.0981 0.0241,-0.1673 c 1.5769,-0.8074 1.0301,-1.2775 1.7087,-1.8611 l 0.1397,-0.4068 c 0.0406,-0.2676 0.0387,-0.4776 -0.0782,-0.6894 -0.0268,-0.0489 -0.1185,-0.0543 -0.1504,-0.1102 -0.4812,0.273 -1.0235,-0.1776 -0.7795,-0.5288 l 0.2979,-0.4286 c 0.2438,-0.3508 1.4253,-2.1634 1.8526,-3.3562 0.1423,-0.3976 0.0477,-0.8692 10e-4,-0.9847 -0.1716,-0.247 -0.2056,-0.1336 -0.3787,-0.3892 -1.1548,-1.703 -4.3398,0.9239 -4.7209,1.2715 0,0 -3.1464,2.2988 -0.7504,-1.2953 2.393,-1.8284 7.986,-3.2613 10.9309,-2.1041 0,0 1.5908,-3.7327 -2.6052,-3.5468 -0.007,-0.0461 -1.8008,0.6287 -2.2832,0.6082 -0.2824,-0.012 -0.406,-0.222 -0.3356,-0.49 0.1066,-0.4053 0.3058,-1.0157 0.6103,-2.1874 0.1023,-3e-4 1.7975,-5.5379 1.7819,-8.2805 -0.002,-0.3765 0.1502,-0.2926 0.0485,-0.915 -0.2659,0.0825 -1.1245,-0.5879 -1.677,-0.9157 -0.46,-0.2732 -0.9701,0.6413 -1.4541,0.8106 -0.3968,0.139 -0.7687,0.2643 -0.9218,0.4769 -0.2851,0.396 -0.4519,1.2509 -0.5638,1.6498 -0.0995,0.3551 0.6027,0.4012 0.7925,0.8049 0.0863,0.1831 -0.0676,0.4374 0.003,0.6819 0,0 0.0351,1.9999 -0.1368,3.638 -0.1511,1.4409 -0.3583,1.0476 -0.3263,1.6674 0.0371,0.7113 0.0355,1.0797 -0.161,1.7242 -0.167,0.5481 -0.0532,1.3819 -0.2807,1.8113 -0.0634,0.1195 -0.1938,0.3868 -0.258,0.4308 -0.5107,0.3492 -1.0762,0.8961 -1.6903,0.9205 0,0 -0.5746,-0.613 -0.2106,-0.7035 0.1799,-0.0448 0.3367,-0.1461 0.4095,-0.1879 0.1359,-0.0779 0.474,-0.0852 0.7243,-0.2494 0.1377,-0.0902 0.1908,-0.3508 0.3306,-0.5922 0.1796,-0.3104 0.4186,-0.5747 0.3792,-0.7928 -0.024,-0.1322 -0.33,-0.4548 -0.0175,-0.7986 0.1399,-0.1537 -0.2445,-0.4295 -0.1836,-0.7022 0.0403,-0.1803 0.4554,-0.3692 0.5213,-0.6755 0.1596,-0.7397 -0.0921,-1.3206 -0.2044,-1.9382 0,0.0762 -0.1376,0.6903 -0.5559,1.0949 -0.3529,0.3412 -0.8974,0.6232 -1.4677,0.6719 -0.1055,0.009 -0.2407,0.0282 -0.3836,0.075 0,0 -0.2127,0.2183 -0.5142,0.3871 -0.5026,0.2815 -1.0648,0.1691 -0.4825,-1.8277 0,0 1.4643,-2.0539 -1.4642,-3.2519 -0.1727,-0.1066 -0.6793,-0.0452 -0.9318,0 z m 0.8034,31.2399 c 0,0 0.8106,-0.341 0.7771,0.729 -0.005,0.1525 -0.2878,0.1923 -0.3196,0.4147 -0.6265,0.6014 -0.5172,-0.725 -0.4575,-1.1437 z"
         style="fill:#1b1918;fill-rule:evenodd"
         id="path86110"
         inkscape:connector-curvature="0" />
      <path
         d="m 259.774,648.8166 c 0.8769,0.1899 1.7974,-0.6077 3.2925,-1.6658 1.256,-0.8891 1.8178,-3.0815 3.7387,-4.7448 1.0212,-0.8842 2.4686,-2.9418 1.4615,-4.2844 -0.4919,-0.3779 -0.9388,-0.4651 -1.6928,-0.8139 -0.8449,-0.3909 -2.1202,-1.3243 -3.3297,-1.2506 -0.4581,-0.0533 -0.9554,-0.0838 -1.2836,0.2154 -0.248,0.2262 -0.6253,0.6076 -0.667,1.0376 -0.0796,0.8207 0.5153,1.9289 1.7259,3.2424 0.1965,0.593 -0.3902,1.3246 -0.7466,1.7575 -0.4656,0.565 -0.3058,1.6335 -0.6113,2.3054 -0.2425,0.5337 -0.3823,1.1675 -0.6813,1.6719 -0.1792,0.3024 -0.4662,0.5067 -0.5793,0.7618 -0.1377,0.311 -0.1117,0.5871 -0.1825,0.8232 -0.156,0.5193 -0.3913,0.8479 -0.4445,0.9443 z m 24.6564,-28.3851 c 0.009,0.003 0.0302,-0.0786 0.0639,-0.1043 0.4977,-0.3816 3.5401,-3.7872 5.3211,1.6434 0.4815,2e-4 -1.6827,5.2395 -2.9649,8.2379 0,-0.0635 0.4264,-0.0376 1.071,-0.3872 0.5509,0.1903 0.697,0.5617 1.0921,0.9961 0.1317,0.1447 0.3945,0.2755 0.5437,0.4186 0.0466,0.0446 -0.2349,1.5597 -0.6004,2.2286 -0.3835,0.7018 -2.4435,0.5849 -3.6596,1.0966 -0.6827,0.2992 -0.5749,0.9284 -0.978,1.9891 -0.4429,1.1655 -1.7846,3.4029 -2.7118,6.3816 -0.0657,0.2111 -0.0143,0.3056 0.0666,0.3836 0.0365,0.0354 0.0634,0.0515 0.1433,0.0855 0.9092,0.0824 1.8577,-0.1805 2.7074,-0.055 l 0.3717,0.055 c 0.0534,0.008 0.6951,0.3056 1.0454,1.0654 0.0805,0.1747 0.0689,0.5253 0.1347,0.7124 0.0985,0.2796 0.2581,0.4132 0.2519,0.7168 -0.4732,0.9754 -1.5821,2.4188 -1.9988,2.228 l -7.1936,-0.0453 c 0,0 -2.4528,-3.2636 -0.1199,-4.4375 -0.2798,-0.1401 3.2878,-6.2324 3.2381,-7.6756 -1.2908,0.0448 -2.4776,0.336 -2.462,0.0452 0.01,-0.1814 0.1403,-0.4969 0.3245,-0.7433 0.5541,-0.7401 2.2187,-1.6501 3.4586,-2.7741 0.0796,-0.2674 2.9029,-10.6684 2.8638,-11.9455 -0.002,-0.0734 -0.003,-0.0837 -0.009,-0.116 z m -9.573,-5.934 c 0,0 1.3326,2.0959 2.8475,3.7881 0.9715,1.085 0.8708,2.9953 -0.4529,4.3006 0,0 -4.6573,7.6789 -4.2115,24.4548 0.006,0.2346 0.0962,0.4888 0.1045,0.7274 0.008,0.0549 -0.2531,0.112 -0.4273,0.254 -0.1914,0.1561 -0.3933,0.508 -0.6638,0.6579 -0.2706,0.1502 -0.3818,0.4777 -0.5424,0.447 -0.1388,-0.0263 -0.4335,-0.2851 -0.7656,-0.5393 -0.2083,-0.1593 -0.565,-0.257 -0.7974,-0.4425 -0.2051,-0.1636 -0.2883,-0.4075 -0.4529,-0.6669 0,-0.0284 -0.3757,-0.0513 -0.7358,0.5322 -0.9204,1.4908 -2.6545,4.8848 -4.5237,7.0483 -1.098,1.271 -2.3899,2.1785 -3.1374,2.4151 -2.2494,-1.323 -4.0124,-1.9722 -4.3767,-2.8756 -0.3394,-0.8414 0.2173,-1.711 0.5452,-2.3316 0.504,-0.9536 2.9625,-1.3089 4.4343,-2.1324 0.5013,-0.2805 1.3842,-0.7377 1.6463,-0.9877 0,0 1.43,-1.2035 3.1144,-2.392 1.1526,-0.8133 2.5324,-1.4746 3.3522,-1.9498 -0.2043,-2.5075 0.2143,-6.7305 0.9153,-11.3139 0.2146,-1.4032 0.1256,-2.9063 0.4726,-4.3201 0.3488,-1.422 0.2703,-3.438 0.4679,-4.8473 0.1657,-1.1807 0.6688,-2.0569 0.7903,-3.1171 0.0802,-0.6999 0.3271,-1.2919 0.3751,-1.9265 0.0691,-0.9124 -0.2216,-1.7016 -0.272,-2.4595 -0.0391,-0.5898 0.1088,-1.1901 0.0151,-1.6299 -0.4584,-0.9789 1.0746,-1.541 2.2787,-0.6933 z"
         style="fill:#1b1918;fill-rule:evenodd"
         id="path86112"
         inkscape:connector-curvature="0" />
      <path
         d="m 230.547,625.1686 -3.2982,1.5478 c 0,0 -2.9737,0.8197 -4.9204,-0.6147 l -1.7808,-1.4192 c -0.8449,-0.6734 1.9777,-2.8043 10.2744,-4.0354 5.0229,-1.0575 11.288,-2.0654 15.9224,-3.4998 1.0349,-0.1882 4.162,-1.2114 4.43,-0.0467 0.0206,0.0553 0.2727,0.0782 0.29,0.377 0.0525,0.8965 -0.6093,2.8821 -4.7901,4.5191 -1.6947,0.6433 -4.298,1.2026 -5.2476,1.0508 -0.1806,-0.0288 -0.2258,-0.0682 -0.256,-0.3003 -0.009,-0.067 0.0206,0.0382 0.0581,-0.2324 0.0262,-0.1896 0.0524,-0.425 0.0844,-0.6897 0.0386,-0.3205 -6.0133,0.5306 -8.8857,2.3812 -0.1411,0.0908 0.0597,0.2147 -0.0668,0.3099 0,0 3.0345,0.0834 4.6437,1.5268 0.4924,0.442 0.9521,1.0585 1.0721,1.7547 0.2514,1.3945 -0.0842,2.8199 -0.3355,4.2151 0.1073,-0.1165 0.341,-0.0202 0.4549,-0.1363 0.5031,-0.513 1.1213,-1.1039 1.7702,-1.5793 0.3892,-0.2853 0.8097,-0.4513 1.1676,-0.7526 0.4664,-0.3926 0.6876,-0.9719 1.1305,-1.284 0.277,-0.1954 0.5776,-0.3398 0.8333,-0.4928 0.2855,-0.1707 0.5828,-0.4533 0.8251,-0.5942 0.5331,-0.3103 0.9499,-0.2844 1.1987,-0.3233 0,0 1.005,0.4056 1.6795,1.5529 0.1221,0.2076 0.1123,0.7704 0.2147,1.031 0.1948,0.4946 0.5522,0.8212 0.7223,1.4647 0.15,0.5679 0.031,1.0176 0.1003,1.7253 0,0 -0.1686,0.429 -0.4095,0.7122 -0.5393,0.6337 -1.7981,1.5136 -2.701,3.0263 0,0 -3.6884,5.9425 -5.4302,8.4015 0.0796,-0.0127 -0.7814,1.095 -2.2477,1.6807 -0.465,0.1857 -1.048,0.2937 -1.5566,-0.0915 -0.4716,-0.3571 -0.9487,-0.8303 -1.6675,-1.3428 -0.6198,-0.2885 -1.4156,-0.2685 -1.9058,0.003 -0.2526,0.1401 -0.2871,0.5871 -0.4092,0.8775 l 0,0.8111 c 0,0.0335 0.2678,0.2759 0.6095,0.2729 0.7529,-0.007 2.0734,-0.1889 3.3959,0.067 0.3888,0.0753 0.9999,-0.0145 1.3678,0.0831 0.221,0.0586 0.268,0.327 0.4238,0.4662 0.4242,0.3792 0.6607,0.9666 0.6607,1.6889 0,0.5418 -0.1133,1.1329 -0.5717,1.5394 -0.7641,0.6775 -2.3162,1.0608 -3.3664,1.4409 -0.6574,0.2378 -1.5727,-0.023 -1.8973,0.2469 0,0 0.3206,-0.4923 0.72,-1.1839 0.2395,-0.4148 0.8015,-0.7452 0.9117,-1.1293 -0.4752,0 -0.7758,-0.007 -1.2013,0.0278 -1.1766,0.0969 -2.2994,0.3156 -2.9675,0.3522 -0.708,0.0387 -1.1591,-0.1327 -1.3515,-0.2936 -0.2723,-0.2281 -0.4721,-0.4668 -0.4886,-1.1537 -0.0129,-0.5336 0.1909,-1.2867 0.2823,-2.2552 0,0 0.5256,-1.1247 -0.3293,-1.0527 -0.6483,0.4588 -1.4638,0.4613 -1.8687,0.096 -0.7735,-0.6977 -0.9401,-2.3745 -1.1855,-2.148 -0.3776,0.3487 -0.9998,1.1426 -2.4765,1.8757 -0.5928,0.2943 -1.4222,0.3113 -2.4501,0.3507 0,0 -0.6948,0.5314 1.2519,3.4002 0.2677,0.9707 0.5215,2.3074 0.4691,3.3417 -0.0494,0.9717 -0.3838,1.6663 -0.7989,1.8646 -0.9453,0.4687 -1.8258,0.5871 -2.5199,0.05 0,0 -0.8855,-0.549 -1.91,-3.4178 -0.5781,-2.5622 -0.4839,-4.0316 -0.1174,-5.3054 0.3048,-1.0595 0.1504,-2.2024 0.318,-3.6008 -0.122,-0.2499 1.025,-0.8184 1.2582,-0.2626 0.1879,0.4481 0.634,1.3963 1.4081,1.5407 0.0138,0.1339 1.0631,-0.013 2.2648,-0.5318 0.8219,-0.3547 1.5579,-0.8764 2.4983,-1.3941 0.1256,-0.0691 0.3003,-0.4416 0.3555,-0.6198 -0.1203,-1.1617 -0.0148,-0.9423 -0.2366,-2.0981 -0.1329,-0.6927 -0.6039,-1.2914 -0.7581,-1.9751 0.0514,-0.0701 -0.061,-0.3333 -0.0298,-0.4262 0.3027,-0.9005 -0.1547,-2.7657 -0.6098,-3.437 -0.261,-0.3853 0.589,-0.9326 0.9628,-1.3549 0,0 0.7418,-0.7556 2.0292,0.8696 0.6744,0.8512 1.3719,2.4196 2.4637,4.9553 3.9129,1.6776 4.1658,-7.6777 4.2618,-9.4938 0,0 -0.2202,-1.626 -1.5521,-2.4457 l -0.1897,-0.4841 z m 6.2537,10.8462 c 0,0 0.0158,-1.2713 0.4937,-1.4501 0.6094,-0.2278 2.1601,-0.9118 3.5108,-1.4767 0.1866,-0.078 0.3693,0.0982 0.3331,0.2251 0,0 -0.5814,0.7725 -1.2807,2.0638 -0.366,0.6762 -0.7243,1.5487 -1.2423,2.4485 -0.4887,0.8485 -1.3779,1.751 -2.0387,2.7309 -0.4821,0.7151 -0.6845,1.2732 -1.186,2.0253 -1.7721,0.068 -1.5122,-0.2576 -0.8708,-1.3939 0.8997,-1.9027 1.2646,-2.8062 1.6142,-4.1707 l 0.6667,-1.0022 z m -7.7043,4.6619 0.5115,-0.031 c 0.0703,-0.004 0.4792,-0.6852 0.5007,0.0725 0.036,1.2698 0.1129,1.042 -0.4032,1.0547 0,0 0.0742,-0.4335 -0.5944,-0.4146 l -0.0146,-0.6816 z"
         style="fill:#1b1918;fill-rule:evenodd"
         id="path86114"
         inkscape:connector-curvature="0" />
      <path
         d="m 430.0434,629.4389 c 0,0 -0.2059,2.9851 -0.9264,5.0438 0,0 0.0819,2.1054 1.4541,2.2912 0.8231,0.1115 2.7533,-1.4034 2.8691,-2.8316 -0.9342,-2.4944 -2.0412,-3.8049 -3.3968,-4.5034 z m 6.6248,4.1174 c 0,0 -0.6955,-1.0221 -1.3301,-2.5712 -0.463,-1.13 -0.7931,-2.5762 -1.4437,-3.9389 -0.7535,-1.5776 -1.6751,-2.947 -2.418,-4.298 9e-4,0 -0.7411,-1.8522 0.6257,-2.9851 0,0 2.655,1.6347 6.0172,5.5734 0.4802,0.5626 1.0114,0.9548 1.5132,1.6239 0,0 0.2926,1.2433 0.0867,2.5814 0.6643,0.0601 2.4434,-0.4292 2.517,-1.2315 0.0392,-0.4291 -0.5824,-0.7719 -1.063,-1.0398 -0.0159,-0.0679 -0.1084,-0.0923 -0.1648,-0.2132 -0.1244,-0.2661 -0.3367,-0.7153 -0.6791,-1.2206 -0.2273,-0.3355 0.1233,-0.5924 0.6251,-0.5152 0,0 1.737,0.0129 2.2517,0.4246 0.1943,0.1297 0.254,0.6089 0.541,0.6148 0.2872,0.006 0.8026,-0.461 1.3247,-1.3482 0,0 0.4117,-1.1322 1.1323,-1.2352 0.0864,-0.2591 0.1533,-1.5219 -2.0163,0.5611 0,0 -1.8952,1.8064 -1.7923,-0.664 0.3598,-0.2877 1.4663,-1.5623 0.0365,-1.2908 -0.0457,0.009 -0.0948,-0.1363 -0.1463,-0.1241 -0.002,-0.0141 -0.046,-0.4511 -0.3636,-0.7129 -0.2587,-0.2133 -0.5234,-0.4746 -0.4789,-0.7607 0.0267,-0.1713 0.324,-0.163 0.5506,-0.336 0.378,-0.2886 0.8906,-0.7547 2.0486,-0.9958 0,0 2.4705,0.3088 4.1174,-2.4705 0.0621,0.093 0.5247,-1.063 1.2892,-2.2072 0.2718,-0.4066 0.6251,-0.5702 0.9514,-1.0635 0.3263,-0.4932 0.5242,-1.5181 0.7045,-1.9003 0,0 2.0663,1.6278 2.6609,3.3084 0.2451,0.693 0.3509,1.5033 -0.1525,2.0838 -0.2288,0.2635 -0.6349,0.5694 -1.0932,0.7504 0,0 -0.7588,0.3394 -1.1638,0.8482 -0.4585,0.5766 -0.5426,1.2233 0.715,1.9888 0,0 0.5894,0.163 1.986,-0.0646 0.4656,-0.076 1.0212,-0.4589 1.6741,-0.5543 0.3205,-0.0468 0.7725,0.4517 1.1327,0.3841 0,0 0.7347,0.2796 1.2043,0.7241 0.2816,0.2665 0.9427,0.4381 0.9875,0.7848 0.0234,0.18 -0.3809,0.3929 -0.4687,0.6405 -0.9606,2.7089 -3.0395,7.3508 -6.0012,7.9671 0,0 -1.4411,0.6176 0.7205,1.1323 0.6918,-0.1693 1.8872,-0.3712 2.4536,-0.1971 0.1798,0.2208 0.2904,0.6765 0.3009,1.1794 0.004,0.1708 -0.1689,0.2752 -0.2654,0.4682 -0.1441,0.2879 -0.4353,0.626 -0.7392,1.0199 -0.2683,0.0447 -0.446,2.7597 -3.2745,4.0259 -1.3885,0.6216 -3.3107,1.1599 -5.9445,1.6806 0,0 -1.3105,-0.3826 -0.6983,-1.337 0.1411,-0.22 0.3074,-0.4089 0.6834,-0.7213 0.3525,-0.2928 0.8691,-0.5377 1.5083,-1.0029 0.4621,-0.3364 1.1918,-0.7491 1.8295,-1.1672 0,0 2.9399,-3.2731 -0.9716,-0.6997 -0.0216,0 -0.4354,0.3847 -1.1542,1.0158 -0.2996,0.2632 -0.7796,0.2937 -1.2153,0.5584 -0.4817,0.2924 -0.8986,0.6937 -1.5197,0.9912 -0.3049,0.146 -0.7349,0.1487 -1.0642,0.3013 -0.626,0.2901 -1.2962,0.7263 -1.9996,0.9965 -0.3463,0.133 -0.7389,0.0431 -1.1,0.1684 -0.4273,0.1482 -0.8826,0.5021 -1.3351,0.5974 -1.629,0.343 -3.3111,0.5193 -4.921,0.9699 -0.8594,0.2407 -1.6142,-0.503 -2.52,-0.6339 -1.1413,-0.2983 -1.4752,-1.5056 -1.2,-2.2914 0.2291,-0.2964 1.6472,-0.5134 3.1557,-0.9185 0.3406,-0.0915 0.8416,-0.3371 1.1665,-0.3877 0,0 6.6785,-0.3959 10.59,-2.8663 0,0.0127 1.8841,-0.8079 2.4099,-1.5243 1.023,-1.3936 -1.4336,-0.1209 -1.7421,0.2764 -0.2526,0.3253 -0.6815,0.3183 -0.8159,0.2926 0.3929,-0.948 1.149,-1.5858 0.9739,-2.4026 0,0 -0.1377,-0.237 -0.2465,-0.2505 -0.3267,-0.0405 -1.0762,0.004 -1.4976,0.1124 -0.3366,0.0864 -1.0375,0.8326 -1.3463,1.3344 0,0 -1.1639,0.1107 -2.217,0.3383 -0.4121,0.0891 -0.8389,-0.1167 -1.1247,0.1662 -0.2843,0.2818 -0.2818,0.6455 -0.2818,1.2083 -0.7359,0.6369 -1.7762,0.811 -2.5155,0.4488 z m 11.7621,-8.9551 c 0.0863,0.0924 1.2732,-1.1514 1.7882,-1.7501 0,0 0.948,-0.6387 0.8451,0.9053 0,0 1.8719,0.0831 2.4895,-0.0199 0,0 -2.229,5.1096 -3.9214,5.4983 0.0607,-0.4807 0.2858,-0.9912 0.3466,-1.5059 0.0316,-0.2669 -0.0594,-0.4596 -0.0969,-0.6433 0.0593,-0.1117 -0.5204,-0.4793 -0.713,-0.6096 -0.4961,-0.0609 -1.3819,-0.3648 -1.758,-0.0222 l -0.011,1.1903 c -0.0543,0.1957 -0.2713,0.7359 -0.3028,0.8859 -0.1432,0.6816 -0.0659,0.267 -0.6029,-0.3565 -0.2677,-0.3107 -1.1679,-0.6721 -0.3711,-1.1612 0.6409,-0.3934 1.1275,-1.3197 2.0507,-1.9586 l 0.257,-0.4525 z m -2.0077,17.0707 c 1.4162,-0.7136 2.7739,-0.6233 3.8548,-0.0704 0.2069,0.1058 0.3278,0.3938 0.522,0.4596 0.9326,0.3164 1.4583,1.2738 0.6991,3.0899 -0.0785,0.1879 -0.3539,0.2386 -0.4565,0.4486 -0.4159,-0.0619 -1.1013,0.0799 -1.7242,0.3031 -0.3496,0.1252 -0.6036,0.3777 -0.9643,0.3866 -0.7026,0.0175 -1.2389,0.085 -1.7182,0.3463 -0.6589,0.3593 -1.3997,0.0706 -1.8723,0.1992 0,0 0.661,1.5223 1.1815,2.9564 0.3562,0.9817 0.509,1.9813 0.8853,2.1903 0.412,0.6324 0.3015,1.4024 -0.1095,2.3099 -0.5135,0.7485 -1.5699,1.4765 -3.5013,1.9556 -0.1833,0.2779 -1.1037,-0.127 -2.3743,-0.7466 -0.5565,-0.2715 -1.211,-0.4639 -1.8491,-0.9627 -0.7575,-0.5921 -1.4815,-1.5178 -2.2615,-2.4162 0.7631,-0.0224 1.4654,-0.224 2.2401,-0.231 0.6024,-0.005 1.3086,0.1792 1.7434,0.1849 1.3643,0.0178 1.8596,0.0302 1.7889,-0.1228 0,0 0.0949,-2.1327 -0.6257,-4.1914 -0.0432,-0.1294 -0.9839,-0.1745 -2.1822,0.3655 -0.542,0.2444 -1.3835,0.4999 -1.8981,0.7749 0,0 -1.2384,0.7533 -2.7435,1.3585 -0.8442,0.3394 -1.7982,0.5061 -2.6025,0.775 -0.5319,0.1778 -1.0587,1.1398 -1.5608,0.6009 -0.2588,-0.2776 -0.7107,-0.6493 -1.3367,-1.0441 -0.4175,-0.263 -0.9871,-0.3963 -1.4659,-0.8744 -0.3722,-0.3717 -0.4371,-0.9965 -0.8559,-1.5156 -0.0722,-0.254 0.4864,-0.4799 1.29,-0.8653 0.3837,-0.1841 0.6631,-0.603 1.1895,-0.8076 0.4086,-0.1588 0.714,-0.4123 1.2184,-0.5377 1.7769,-0.4419 4.1795,-0.87 6.2772,-1.5375 1.4224,-0.4525 2.574,-0.7731 3.7702,-1.3551 0.9575,-0.4659 1.9778,-0.4963 2.8605,-0.6135 1.4932,-0.1982 1.9532,-0.671 2.5816,-0.8133 z"
         style="fill:#1b1918;fill-rule:evenodd"
         id="path86116"
         inkscape:connector-curvature="0" />
    </g>
  </g>
</svg>
